<?xml version="1.0" encoding="utf-8"?>
<!-- Generator: Adobe Illustrator 15.1.0, SVG Export Plug-In . SVG Version: 6.00 Build 0)  -->
<!DOCTYPE svg PUBLIC "-//W3C//DTD SVG 1.1//EN" "http://www.w3.org/Graphics/SVG/1.1/DTD/svg11.dtd">
<svg version="1.1" id="Layer_1" xmlns:sketch="http://www.bohemiancoding.com/sketch/ns"
	 xmlns="http://www.w3.org/2000/svg" xmlns:xlink="http://www.w3.org/1999/xlink" x="0px" y="0px" width="140px" height="140px"
	 viewBox="-24.5 -35.5 140 140" enable-background="new -24.5 -35.5 140 140" xml:space="preserve">
<title>plaque_outline</title>
<desc>Created with Sketch.</desc>
<g id="Page-1" sketch:type="MSPage">
	<g id="myIcons" transform="translate(-528.000000, -268.000000)" sketch:type="MSArtboardGroup">
		<path id="plaque_outline" sketch:type="MSShapeGroup" d="M534.116,267.677c-3.811,0-7.278,3.68-7.83,8.196
			c-0.013,0.177-0.02,0.254-0.026,0.343c-0.022,0.254-0.048,0.551-0.083,0.885c-0.096,0.956-0.227,2.022-0.395,3.171
			c-0.48,3.28-1.169,6.561-2.102,9.615c-1.47,4.815-3.408,8.604-5.85,10.967l-0.475,0.46l0.47,0.466
			c2.426,2.407,4.337,5.904,5.78,10.209c1.031,3.078,1.764,6.384,2.248,9.689c0.168,1.157,0.294,2.231,0.383,3.195
			c0.031,0.336,0.055,0.634,0.073,0.89c0.017,0.271,0.018,0.296,0.019,0.308c0.599,4.59,4.001,8.253,7.788,8.253h18.23l-0.458-0.191
			c6.184,6.243,13.929,9.717,22.112,9.717c8.185,0,15.929-3.474,22.112-9.717l-0.458,0.191h18.231c3.786,0,7.188-3.663,7.781-8.201
			c0.014-0.191,0.021-0.269,0.024-0.359c0.019-0.256,0.043-0.554,0.074-0.89c0.09-0.964,0.213-2.038,0.383-3.195
			c0.482-3.306,1.217-6.611,2.248-9.689c1.441-4.305,3.353-7.802,5.781-10.209l0.468-0.466l-0.477-0.46
			c-2.44-2.363-4.378-6.151-5.849-10.967c-0.933-3.055-1.62-6.335-2.102-9.615c-0.169-1.148-0.298-2.215-0.396-3.171
			c-0.032-0.334-0.06-0.631-0.082-0.885c-0.021-0.27-0.022-0.295-0.022-0.308c-0.556-4.552-4.023-8.231-7.832-8.231h-18.231
			l0.458,0.19c-6.184-6.242-13.928-9.717-22.112-9.717c-8.183,0-15.928,3.475-22.112,9.717l0.458-0.19H534.116z M552.804,268.778
			c5.95-6.006,13.37-9.334,21.196-9.334c7.828,0,15.248,3.328,21.195,9.334l0.459,0.192h18.231c3.102,0,6.07,3.148,6.547,7.06
			c0.008,0.119,0.016,0.2,0.024,0.292c0.021,0.263,0.049,0.566,0.082,0.908c0.099,0.975,0.231,2.061,0.401,3.229
			c0.49,3.34,1.191,6.681,2.146,9.805c1.53,5.008,3.561,8.976,6.189,11.52l-0.007-0.925c-2.59,2.57-4.596,6.237-6.097,10.716
			c-1.058,3.158-1.807,6.538-2.301,9.914c-0.172,1.182-0.3,2.278-0.39,3.265c-0.033,0.345-0.058,0.652-0.078,0.919
			c-0.017,0.287-0.019,0.315-0.021,0.332c-0.511,3.893-3.421,7.026-6.497,7.026h-18.231l-0.459,0.188
			c-5.947,6.009-13.367,9.335-21.195,9.335c-7.826,0-15.246-3.326-21.196-9.335l-0.458-0.188h-18.23
			c-3.077,0-5.987-3.134-6.504-7.077c-0.004-0.107-0.01-0.188-0.016-0.281c-0.019-0.267-0.043-0.574-0.076-0.919
			c-0.09-0.986-0.219-2.083-0.391-3.265c-0.494-3.376-1.243-6.756-2.302-9.914c-1.501-4.479-3.504-8.146-6.095-10.716l-0.006,0.925
			c2.629-2.544,4.659-6.512,6.188-11.52c0.953-3.124,1.655-6.465,2.144-9.805c0.171-1.169,0.304-2.255,0.402-3.229
			c0.035-0.342,0.063-0.646,0.085-0.908c0.021-0.283,0.023-0.312,0.024-0.327c0.475-3.876,3.442-7.024,6.546-7.024h18.23
			L552.804,268.778z M525.502,259.693c-5.063,0-9.583,4.798-10.299,10.658c-0.021,0.249-0.027,0.341-0.037,0.446
			c-0.025,0.306-0.058,0.661-0.099,1.063c-0.116,1.151-0.272,2.436-0.476,3.82c-0.579,3.953-1.408,7.902-2.53,11.575
			c-1.753,5.74-4.053,10.238-6.908,13.001L504,301.374l1.14,1.132c2.851,2.827,5.119,6.978,6.837,12.104
			c1.237,3.696,2.119,7.668,2.7,11.645c0.203,1.395,0.355,2.687,0.461,3.844c0.037,0.406,0.065,0.763,0.087,1.066
			c0.021,0.319,0.022,0.349,0.023,0.36c0.781,6.005,5.217,10.781,10.253,10.781h22.167l-1.114-0.466
			c7.663,7.736,17.277,12.049,27.444,12.049c10.168,0,19.782-4.313,27.444-12.049l-1.114,0.466h22.169
			c5.035,0,9.471-4.776,10.242-10.658c0.021-0.285,0.024-0.377,0.033-0.483c0.02-0.304,0.051-0.66,0.088-1.066
			c0.106-1.157,0.256-2.449,0.461-3.844c0.58-3.977,1.461-7.948,2.699-11.645c1.719-5.127,3.986-9.277,6.837-12.104l1.141-1.132
			l-1.152-1.117c-2.857-2.763-5.156-7.261-6.909-13.001c-1.122-3.673-1.95-7.622-2.531-11.575c-0.203-1.385-0.358-2.669-0.476-3.82
			c-0.041-0.401-0.071-0.757-0.099-1.063c-0.024-0.319-0.026-0.348-0.026-0.361c-0.726-5.945-5.246-10.743-10.308-10.743H600.33
			l1.114,0.465c-7.662-7.734-17.276-12.048-27.444-12.048c-10.167,0-19.781,4.313-27.444,12.048l1.114-0.465H525.502z
			 M548.322,262.84l0.46-0.465c7.093-7.159,15.917-11.118,25.217-11.118c9.301,0,18.125,3.959,25.219,11.118l0.46,0.465h0.651
			h22.169c3.343,0,6.646,3.507,7.183,7.895c-0.003-0.012,0.008,0.127,0.024,0.324c0.026,0.323,0.062,0.697,0.103,1.118
			c0.123,1.196,0.285,2.528,0.494,3.961c0.601,4.098,1.462,8.198,2.636,12.039c1.895,6.205,4.417,11.138,7.727,14.343l-0.012-2.249
			c-3.251,3.225-5.742,7.786-7.604,13.34c-1.305,3.888-2.226,8.041-2.83,12.189c-0.214,1.452-0.369,2.797-0.482,4.012
			c-0.039,0.426-0.069,0.804-0.092,1.132c-0.015,0.201-0.024,0.345-0.029,0.42c-0.565,4.31-3.808,7.798-7.116,7.798H600.33h-0.651
			l-0.46,0.465c-7.094,7.157-15.918,11.117-25.219,11.117c-9.3,0-18.125-3.96-25.217-11.117l-0.46-0.465h-0.653h-22.167
			c-3.31,0-6.55-3.488-7.131-7.921c-0.038-0.625-0.068-1.003-0.108-1.429c-0.111-1.215-0.269-2.56-0.481-4.012
			c-0.606-4.148-1.527-8.302-2.83-12.189c-1.861-5.554-4.354-10.115-7.604-13.34l-0.013,2.249c3.31-3.205,5.834-8.138,7.729-14.343
			c1.173-3.841,2.034-7.941,2.634-12.039c0.21-1.433,0.372-2.765,0.493-3.961c0.043-0.421,0.077-0.795,0.104-1.118
			c0.016-0.197,0.026-0.336,0.032-0.411c0.528-4.301,3.832-7.808,7.177-7.808h22.167H548.322z"/>
	</g>
</g>
</svg>
