<?xml version="1.0" encoding="utf-8"?>
<!-- Generator: Adobe Illustrator 15.1.0, SVG Export Plug-In . SVG Version: 6.00 Build 0)  -->
<!DOCTYPE svg PUBLIC "-//W3C//DTD SVG 1.1//EN" "http://www.w3.org/Graphics/SVG/1.1/DTD/svg11.dtd">
<svg version="1.1" id="Layer_1" xmlns="http://www.w3.org/2000/svg" xmlns:xlink="http://www.w3.org/1999/xlink" x="0px" y="0px"
	 width="140px" height="140px" viewBox="-20 -20 140 140" enable-background="new -20 -20 140 140" xml:space="preserve">
<g>
	<g>
		<path d="M60.908,106.43H39.084c-2.771,0-5.028-2.257-5.028-5.028v-9.077c0-0.451-0.935-1.137-2.434-1.801l-0.241-0.113
			c-2.868-1.281-5.655-2.963-8.23-4.961c-0.659-0.509-1.539-0.65-2.049-0.354l-7.545,4.359c-2.623,1.515-5.633,0.524-6.969-1.792
			L-4.326,68.759c-0.669-1.162-0.85-2.513-0.5-3.812c0.346-1.3,1.18-2.386,2.343-3.061l1.176,1.613l-0.997-1.715l0.517-0.297
			l1.146,1.634l-0.997-1.717l5.976-3.449c1.812-1.052,1.812-1.052,1.654-2.183c-0.25-1.713-0.362-3.476-0.362-5.643v-0.258
			c0-2.16,0.112-3.928,0.354-5.559l0.014-0.119C6.149,43.1,6.149,43.1,4.27,42.011l-5.905-3.412l0.874-1.783l-0.99,1.719
			l-0.551-0.321l0.874-1.782l-1.056,1.677c-2.399-1.385-3.228-4.464-1.841-6.869L6.591,12.336c0.896-1.552,2.563-2.514,4.359-2.514
			c0.88,0,1.747,0.234,2.51,0.675l7.666,4.421c0.51,0.28,1.378,0.141,2.026-0.365c2.573-2,5.362-3.679,8.291-4.99l0.182-0.085
			c1.499-0.659,2.434-1.349,2.434-1.801v-9.074c0-2.771,2.257-5.029,5.028-5.029h21.822c2.782,0,5.039,2.258,5.039,5.029v9.074
			c0,0.451,0.932,1.141,2.432,1.801l0.215,0.103c2.914,1.304,5.689,2.978,8.256,4.972c0.646,0.504,1.512,0.643,2.025,0.365
			l7.627-4.404c2.541-1.438,5.575-0.48,6.91,1.818l10.908,18.905c1.385,2.406,0.561,5.483-1.842,6.87l-5.027,2.904l-1.125-1.638
			l0.993,1.717l-1.53,0.884c-1.938,1.124-1.938,1.124-1.785,2.253l0.022,0.146c0.236,1.646,0.342,3.383,0.342,5.498v0.128v0.13
			c0,2.156-0.108,3.91-0.349,5.529v0.021c-0.168,1.227-0.168,1.227,1.705,2.316l1.595,0.914l-0.864,1.785l0.988-1.716l4.189,2.424
			l-0.876,1.783l0.993-1.72l0.76,0.44c1.141,0.655,1.971,1.741,2.32,3.041c0.34,1.299,0.166,2.648-0.508,3.811L93.411,87.662
			c-0.899,1.556-2.569,2.519-4.364,2.519c-0.875,0-1.745-0.234-2.51-0.676L78.91,85.1c-0.549-0.315-1.404-0.159-2.063,0.348
			c-2.557,1.99-5.32,3.653-8.218,4.958l-0.291,0.131c-1.465,0.651-2.397,1.337-2.397,1.788v9.077
			C65.945,104.173,63.69,106.43,60.908,106.43z M33.225,86.893c2.062,0.908,4.801,2.465,4.801,5.432v9.077
			c0,0.58,0.474,1.062,1.059,1.062h21.824c0.59,0,1.068-0.481,1.068-1.062v-9.077c0-2.967,2.737-4.523,4.8-5.432l0.157-0.081
			c2.64-1.179,5.146-2.693,7.484-4.5c1.903-1.479,4.568-1.746,6.461-0.66l3.146,1.818l-0.852,1.81l0.985-1.723l1.723,0.988
			l-0.808,1.821l0.99-1.716l2.44,1.405c0.217,0.117,0.375,0.158,0.543,0.158c0.383,0,0.739-0.202,0.925-0.534l10.911-18.9
			c0.145-0.248,0.186-0.53,0.105-0.811c-0.07-0.27-0.242-0.498-0.492-0.645l-6.702-3.868c-2.983-1.731-4.149-2.96-3.732-6.137
			l0.021-0.153c0.219-1.482,0.316-3.069,0.316-5.036l0.002-0.129v-0.129c0-1.969-0.099-3.55-0.308-4.982l-0.023-0.179
			c-0.444-3.188,0.718-4.428,3.67-6.134l1.971-1.144l1.121,1.643l-0.994-1.716l3.816-2.2l1.103,1.653l-0.983-1.718l0.658-0.38
			c0.57-0.334,0.752-0.986,0.451-1.496L89.974,14.315c-0.282-0.489-0.943-0.678-1.454-0.385l-4.361,2.517l-1.049-1.685l0.937,1.75
			l-3.269,1.88l0,0c-2.027,1.083-4.513,0.733-6.359-0.708c-2.33-1.807-4.839-3.32-7.479-4.5l-0.106-0.052
			c-2.126-0.938-4.856-2.489-4.856-5.458v-9.073c0-0.585-0.479-1.061-1.068-1.061H39.084c-0.585,0-1.059,0.475-1.059,1.061v9.073
			c0,2.972-2.739,4.524-4.801,5.435l-0.938-1.753l0.821,1.807c-2.685,1.2-5.201,2.714-7.521,4.521
			c-1.908,1.48-4.575,1.743-6.463,0.656l-3.15-1.819l0.852-1.798l-0.986,1.723l-4.278-2.471c-0.25-0.146-0.423-0.193-0.613-0.193
			c-0.379,0-0.73,0.206-0.922,0.531L-0.891,33.221c-0.139,0.25-0.175,0.534-0.105,0.807c0.076,0.273,0.253,0.503,0.496,0.645
			l6.699,3.865c3.016,1.753,4.18,2.995,3.723,6.242l-0.017,0.125c-0.211,1.418-0.308,3.005-0.308,4.968l0.001,0.156
			c-0.001,2.067,0.096,3.652,0.307,5.08l0.018,0.137c0.457,3.227-0.709,4.472-3.663,6.186l-6.685,3.857
			c-0.317,0.18-0.494,0.41-0.57,0.68c-0.07,0.28-0.034,0.561,0.105,0.81l10.917,18.906c0.288,0.491,0.951,0.679,1.451,0.384
			l4.364-2.512l1.053,1.676l-0.915-1.767l3.232-1.854c0.694-0.403,1.607-0.642,2.561-0.642c1.344,0,2.696,0.475,3.817,1.345
			c2.31,1.795,4.813,3.303,7.435,4.479l0.109,0.056l-0.161,0.34l-0.545,1.521L33.225,86.893z"/>
	</g>
	<g>
		<path d="M50,85.104c-19.289,0-34.98-15.691-34.98-34.974c0-19.289,15.692-34.981,34.98-34.981
			c19.284,0,34.975,15.692,34.975,34.981C84.975,69.412,69.283,85.104,50,85.104z M50,19.118c-17.102,0-31.013,13.912-31.013,31.013
			c0,17.101,13.911,31.007,31.013,31.007c17.102,0,31.008-13.907,31.008-31.007C81.008,33.028,67.102,19.118,50,19.118z"/>
	</g>
	<path d="M63.742,64.542l-3.075-3.083l10.763-10.76L60.667,39.926l3.075-3.079l13.844,13.852L63.742,64.542z M44.024,63.748
		l9.455-28.283h4.348l-9.451,28.283H44.024z M37.498,63.452L23.653,49.604l13.845-13.845l3.075,3.079L29.805,49.604l10.769,10.767
		L37.498,63.452z"/>
</g>
</svg>
