<?xml version="1.0" encoding="utf-8"?>
<!-- Generator: Adobe Illustrator 15.1.0, SVG Export Plug-In . SVG Version: 6.00 Build 0)  -->
<!DOCTYPE svg PUBLIC "-//W3C//DTD SVG 1.1//EN" "http://www.w3.org/Graphics/SVG/1.1/DTD/svg11.dtd">
<svg version="1.1" id="Your_Icon" xmlns="http://www.w3.org/2000/svg" xmlns:xlink="http://www.w3.org/1999/xlink" x="0px" y="0px"
	 width="140px" height="140px" viewBox="-20 -20 140 140" enable-background="new -20 -20 140 140" xml:space="preserve">
<g>
	<g>
		<g>
			<path d="M103.232,58.048L103.232,58.048l-37.96-0.022c-0.443,0-0.805-0.361-0.805-0.804l0.018-27.37
				c0-0.212,0.085-0.418,0.233-0.568c0.152-0.15,0.356-0.234,0.57-0.234l0,0l37.962,0.022c0.215,0,0.418,0.084,0.571,0.235
				c0.15,0.15,0.232,0.355,0.232,0.569l-0.017,27.366C104.038,57.688,103.678,58.048,103.232,58.048z M66.076,56.416l36.354,0.022
				l0.018-25.758l-36.354-0.022L66.076,56.416z"/>
		</g>
		<g>
			<path d="M99.223,57.592c-0.248,0-0.494-0.115-0.649-0.332l-9.784-13.452l-5.944,6.45c-0.172,0.186-0.418,0.279-0.666,0.257
				c-0.251-0.024-0.476-0.162-0.609-0.374l-8.993-14.322l-6.826,4.857c-0.363,0.259-0.864,0.173-1.123-0.191
				c-0.256-0.362-0.172-0.864,0.189-1.122l7.522-5.35c0.183-0.13,0.405-0.181,0.624-0.134c0.216,0.042,0.407,0.174,0.526,0.361
				l8.885,14.152l5.897-6.399c0.165-0.177,0.398-0.268,0.637-0.258c0.241,0.013,0.462,0.136,0.604,0.33l10.359,14.248
				c0.261,0.36,0.182,0.862-0.177,1.124C99.551,57.542,99.386,57.592,99.223,57.592z"/>
		</g>
		<g>
			<path d="M94.933,39.504L94.933,39.504c-0.979,0-1.905-0.383-2.599-1.077c-0.693-0.695-1.075-1.617-1.071-2.599
				c0-2.024,1.646-3.67,3.67-3.67c0.982,0,1.907,0.383,2.599,1.077c0.696,0.695,1.078,1.617,1.076,2.599
				C98.607,37.858,96.959,39.504,94.933,39.504z M94.935,33.765c-0.551,0-1.071,0.214-1.459,0.604
				c-0.389,0.39-0.604,0.908-0.604,1.459c0,0.551-0.128,1.071,0.263,1.46c0.391,0.392,1.12,0.607,1.12,0.607v0.804v-0.804
				c1.608,0,2.406-0.925,2.406-2.063c0-0.551-0.045-1.071-0.434-1.46C95.834,33.982,95.486,33.765,94.935,33.765z"/>
		</g>
	</g>
	<g>
		<path d="M118.39,99.08h-136.78c-0.888,0-1.609-0.717-1.609-1.609V15.403c0-0.888,0.722-1.609,1.609-1.609h136.78
			c0.89,0,1.61,0.722,1.61,1.609v82.068C120,98.363,119.279,99.08,118.39,99.08z M-16.781,95.863H116.78v-78.85H-16.781V95.863z"/>
	</g>
	<g>
		<path d="M118.39,17.013c-0.889,0-1.609-0.722-1.609-1.61V7.357c0-1.896-1.371-3.218-3.331-3.218H-13.047
			c-2.058,0-3.734,1.444-3.734,3.218v8.046c0,0.889-0.721,1.61-1.609,1.61c-0.888,0-1.609-0.722-1.609-1.61V7.357
			c0-3.549,3.118-6.437,6.953-6.437h126.494c3.735,0,6.553,2.768,6.553,6.437v8.046C120,16.292,119.279,17.013,118.39,17.013z"/>
	</g>
	<g>
		<path d="M108.735,65.287H-7.126c-0.889,0-1.61-0.719-1.61-1.607V23.45c0-0.889,0.722-1.61,1.61-1.61h115.861
			c0.891,0,1.607,0.721,1.607,1.61v40.23C110.343,64.568,109.626,65.287,108.735,65.287z M-5.518,62.069h112.645V25.059H-5.518
			V62.069z"/>
	</g>
	<g>
		<path d="M55.632,33.104H5.747c-0.444,0-0.805-0.361-0.805-0.805c0-0.443,0.36-0.804,0.805-0.804h49.885
			c0.443,0,0.805,0.361,0.805,0.804C56.437,32.744,56.075,33.104,55.632,33.104z"/>
	</g>
	<g>
		<path d="M29.885,39.541H5.747c-0.444,0-0.805-0.36-0.805-0.804c0-0.444,0.36-0.805,0.805-0.805h24.138
			c0.444,0,0.805,0.36,0.805,0.805C30.689,39.181,30.329,39.541,29.885,39.541z"/>
	</g>
	<g>
		<path d="M42.759,45.978H5.747c-0.444,0-0.805-0.36-0.805-0.804c0-0.445,0.36-0.805,0.805-0.805h37.012
			c0.443,0,0.804,0.36,0.804,0.805C43.563,45.617,43.202,45.978,42.759,45.978z"/>
	</g>
	<g>
		<path d="M68.506,76.553H31.494c-0.889,0-1.609-0.719-1.609-1.609s0.721-1.609,1.609-1.609h37.012c0.889,0,1.609,0.719,1.609,1.609
			S69.395,76.553,68.506,76.553z"/>
	</g>
	<g>
		<path d="M62.068,84.598H39.541c-0.89,0-1.61-0.719-1.61-1.609c0-0.889,0.721-1.607,1.61-1.607h22.527
			c0.89,0,1.61,0.719,1.61,1.607C63.679,83.879,62.958,84.598,62.068,84.598z"/>
	</g>
	<g>
		<circle cx="-9.5" cy="9.007" r="2.052"/>
	</g>
	<g>
		<circle cx="-2.902" cy="9.007" r="2.052"/>
	</g>
	<g>
		<circle cx="3.696" cy="9.007" r="2.052"/>
	</g>
	<g>
		<circle cx="45.574" cy="55.23" r="1.609"/>
	</g>
	<g>
		<circle cx="50.402" cy="55.23" r="1.609"/>
	</g>
	<g>
		<path d="M55.231,53.621c0.887,0,1.608,0.721,1.608,1.609s-0.722,1.609-1.608,1.609c-0.892,0-1.61-0.721-1.61-1.609
			S54.34,53.621,55.231,53.621z"/>
	</g>
</g>
</svg>
