<?xml version="1.0" encoding="utf-8"?>
<!-- Generator: Adobe Illustrator 15.1.0, SVG Export Plug-In . SVG Version: 6.00 Build 0)  -->
<!DOCTYPE svg PUBLIC "-//W3C//DTD SVG 1.1//EN" "http://www.w3.org/Graphics/SVG/1.1/DTD/svg11.dtd">
<svg version="1.1" id="Layer_1" xmlns="http://www.w3.org/2000/svg" xmlns:xlink="http://www.w3.org/1999/xlink" x="0px" y="0px"
	 width="140px" height="140px" viewBox="-20 -20 140 140" enable-background="new -20 -20 140 140" xml:space="preserve">
<g>
	<path d="M22.479,21.261c1.946,1.733,2.119,4.715,0.386,6.66c-1.728,1.945-4.71,2.123-6.658,0.391
		c-1.948-1.729-2.121-4.714-0.39-6.663C17.549,19.706,20.532,19.525,22.479,21.261z"/>
	<path d="M13.206,14.628c1.459,1.296,1.593,3.534,0.292,4.995c-1.3,1.46-3.536,1.591-4.997,0.294
		c-1.46-1.304-1.59-3.541-0.293-5.001C9.505,13.458,11.743,13.326,13.206,14.628z"/>
	<path d="M9.562,49.514c2.21,0.129,3.897,2.034,3.765,4.24c-0.127,2.208-2.031,3.896-4.243,3.763
		C6.878,57.39,5.19,55.495,5.32,53.287C5.449,51.069,7.348,49.382,9.562,49.514z"/>
	<path d="M-1.008,49.892c1.658,0.1,2.927,1.525,2.829,3.186c-0.103,1.652-1.523,2.919-3.184,2.824
		c-1.659-0.101-2.923-1.526-2.823-3.181C-4.088,51.062-2.662,49.792-1.008,49.892z"/>
	<path d="M16.281,75.476c1.542-1.071,3.667-0.691,4.746,0.849c1.078,1.548,0.698,3.67-0.846,4.749
		c-1.543,1.078-3.67,0.696-4.748-0.847C14.359,78.685,14.735,76.56,16.281,75.476z"/>
	<path d="M9.425,81.291c1.162-0.804,2.758-0.517,3.564,0.639c0.807,1.157,0.525,2.754-0.636,3.561
		c-1.161,0.808-2.754,0.526-3.563-0.633C7.984,83.695,8.271,82.101,9.425,81.291z"/>
	<path d="M39.684,14.847c1.521,2.771,0.512,6.252-2.252,7.781c-2.768,1.521-6.249,0.512-7.775-2.254
		c-1.525-2.769-0.515-6.252,2.254-7.78C34.677,11.074,38.155,12.08,39.684,14.847z"/>
	<path d="M16.777,35.077c2.875,1.047,4.359,4.229,3.316,7.104c-1.056,2.875-4.229,4.364-7.11,3.313
		c-2.876-1.045-4.354-4.224-3.312-7.102C10.721,35.519,13.9,34.037,16.777,35.077z"/>
	<path d="M13.61,61.709c2.546-0.73,5.205,0.744,5.931,3.285c0.729,2.547-0.747,5.201-3.29,5.929
		c-2.545,0.73-5.202-0.747-5.928-3.287C9.596,65.093,11.068,62.437,13.61,61.709z"/>
	<path d="M24.046,81.291c0.882-1.467,2.788-1.946,4.261-1.063c1.468,0.877,1.948,2.79,1.064,4.254
		c-0.883,1.475-2.791,1.949-4.257,1.069C23.641,84.67,23.17,82.764,24.046,81.291z"/>
	<path d="M50.003,1.562c-3.519,0-6.363,2.849-6.363,6.362c0,3.51,2.844,6.363,6.363,6.363c3.507,0,6.354-2.853,6.354-6.363
		C56.359,4.411,53.51,1.562,50.003,1.562z"/>
	<path d="M50.003-10c-2.168,0-3.925,1.758-3.925,3.92c0,2.165,1.757,3.92,3.925,3.92c2.163,0,3.914-1.756,3.914-3.92
		C53.917-8.242,52.166-10,50.003-10z"/>
	<path d="M77.519,21.261c-1.947,1.733-2.118,4.715-0.386,6.66c1.729,1.945,4.712,2.123,6.657,0.391
		c1.949-1.729,2.117-4.714,0.392-6.663C82.453,19.706,79.465,19.525,77.519,21.261z"/>
	<path d="M86.794,14.628c-1.458,1.296-1.592,3.534-0.295,4.995c1.307,1.46,3.546,1.591,4.999,0.294
		c1.461-1.304,1.593-3.541,0.294-5.001C90.491,13.458,88.256,13.326,86.794,14.628z"/>
	<path d="M90.437,49.514c-2.208,0.129-3.894,2.034-3.766,4.24c0.126,2.208,2.03,3.896,4.236,3.763
		c2.212-0.127,3.899-2.021,3.771-4.229C94.548,51.069,92.652,49.382,90.437,49.514z"/>
	<path d="M101.005,49.892c-1.652,0.1-2.924,1.525-2.824,3.186c0.1,1.652,1.521,2.919,3.182,2.824
		c1.658-0.101,2.92-1.526,2.824-3.181C104.088,51.062,102.663,49.792,101.005,49.892z"/>
	<path d="M83.714,75.476c-1.538-1.071-3.667-0.691-4.744,0.849c-1.075,1.548-0.693,3.67,0.848,4.749
		c1.544,1.078,3.669,0.696,4.745-0.847C85.64,78.685,85.263,76.56,83.714,75.476z"/>
	<path d="M90.568,81.291c-1.157-0.804-2.751-0.517-3.561,0.639c-0.803,1.157-0.518,2.754,0.637,3.561
		c1.157,0.808,2.753,0.526,3.562-0.633C92.011,83.695,91.727,82.101,90.568,81.291z"/>
	<path d="M60.316,14.847c-1.527,2.771-0.513,6.252,2.251,7.781c2.769,1.521,6.248,0.512,7.777-2.254
		c1.523-2.769,0.513-6.252-2.257-7.78C65.322,11.074,61.841,12.08,60.316,14.847z"/>
	<path d="M83.221,35.077c-2.875,1.047-4.356,4.229-3.313,7.104c1.047,2.875,4.226,4.364,7.107,3.313
		c2.87-1.045,4.354-4.224,3.313-7.102C89.278,35.519,86.098,34.037,83.221,35.077z"/>
	<path d="M86.391,61.709c-2.548-0.73-5.202,0.744-5.936,3.285c-0.729,2.547,0.747,5.201,3.295,5.929
		c2.544,0.73,5.193-0.747,5.928-3.287C90.401,65.093,88.934,62.437,86.391,61.709z"/>
	<path d="M75.951,81.291c-0.882-1.467-2.791-1.946-4.261-1.063c-1.47,0.877-1.95,2.79-1.06,4.254
		c0.879,1.475,2.789,1.949,4.254,1.069C76.354,84.67,76.828,82.764,75.951,81.291z"/>
	<path d="M49.996,18.556c0.007,0,0.007,0,0.007,0l0,0H49.996z"/>
	<path d="M83.591,53.936c-0.115-1.959-1.27-3.61-2.9-4.445l-0.035,0.04c-3.397-1.623-5.746-5.093-5.746-9.106
		c0-1.308,0.248-2.548,0.696-3.695l0.026,0.008c0.775-2.105,0.389-4.567-1.201-6.358c-1.547-1.743-3.851-2.42-5.982-1.98
		l0.013,0.005c-0.833,0.221-1.697,0.337-2.597,0.337c-4.187,0-7.783-2.551-9.306-6.188l0.014-0.003
		c-1.234-2.377-3.719-3.994-6.567-3.994c-2.861,0-5.346,1.618-6.58,3.994l0.018,0.003c-1.531,3.637-5.122,6.188-9.307,6.188
		c-0.894,0-1.768-0.118-2.594-0.337l0.015-0.005c-2.131-0.44-4.435,0.237-5.991,1.98c-1.592,1.793-1.974,4.253-1.198,6.358
		l0.023-0.008c0.451,1.147,0.699,2.39,0.699,3.695c0,4.013-2.342,7.483-5.745,9.106l-0.034-0.04
		c-1.631,0.834-2.786,2.485-2.904,4.445c-0.117,1.973,0.853,3.766,2.396,4.779h0.001c2.713,1.809,4.507,4.898,4.507,8.407
		c0,1.168-0.197,2.293-0.564,3.341l-0.008-0.036c-0.607,1.392-0.493,3.064,0.44,4.402c0.865,1.25,2.252,1.92,3.661,1.942v-0.004
		c2.891,0,5.19,2.433,5.213,5.423c0,0.161,0.007,0.109,0,0.26c-0.061,1.66,0.971,3.232,2.629,3.793
		c2.026,0.675,4.215-0.413,4.892-2.439c0.328-0.973,0.239-1.98-0.161-2.842l-0.08-0.073c-1.742-3.324-4.947-6.892-5.48-7.425
		c-4.999-4.892-6.962-10.244-6.962-16.931c0-12.774,10.341-23.131,23.109-23.171c12.766,0.042,23.101,10.397,23.101,23.171
		c0,6.687-1.965,12.039-6.96,16.931c-0.534,0.534-3.742,4.101-5.482,7.425l-0.084,0.073c-0.395,0.861-0.487,1.869-0.161,2.842
		c0.683,2.023,2.868,3.112,4.896,2.439c1.658-0.561,2.685-2.133,2.631-3.793c-0.01-0.15,0-0.099,0-0.26
		c0.023-2.99,2.32-5.423,5.209-5.423v0.004c1.414-0.022,2.8-0.692,3.667-1.942c0.938-1.338,1.047-3.01,0.44-4.402l-0.008,0.034
		c-0.367-1.046-0.563-2.171-0.563-3.341c0-3.509,1.79-6.598,4.509-8.406h0.002C82.737,57.699,83.712,55.908,83.591,53.936z"/>
	<path d="M55.293,100.021v-0.724l5.137-0.692c0.412-0.057,0.697-0.436,0.646-0.844c-0.058-0.407-0.433-0.694-0.846-0.641
		l-13.096,1.706c-0.411,0.056-0.786-0.231-0.843-0.642c-0.055-0.408,0.233-0.786,0.642-0.84l4.906-0.663v-0.72l1.963-0.263v0.727
		l1.491-0.199v-0.729l5.137-0.692c0.412-0.057,0.697-0.436,0.646-0.841c-0.058-0.412-0.433-0.697-0.846-0.642l-13.096,1.704
		c-0.411,0.059-0.786-0.227-0.843-0.64c-0.055-0.405,0.233-0.785,0.642-0.843l4.906-0.664v-1.784L40.423,91.1v3.367l-0.241,0.042
		c-0.499,0.074-0.847,0.528-0.782,1.031c0.065,0.493,0.523,0.845,1.023,0.784v1.94l-0.241,0.047
		c-0.499,0.072-0.847,0.532-0.782,1.028c0.066,0.499,0.523,0.85,1.023,0.78v1.953l-0.241,0.043
		c-0.499,0.065-0.847,0.527-0.782,1.026c0.066,0.497,0.523,0.845,1.023,0.778v0.003v1.863l2.407,2.344h3.792
		c0.044,1.037,1.469,1.869,3.213,1.869c1.746,0,3.163-0.832,3.211-1.869h4.002l2.394-2.322l-0.011-3.266l0.999-0.133
		c0.412-0.057,0.697-0.436,0.644-0.842c-0.056-0.412-0.431-0.698-0.844-0.643v-0.002l-13.098,1.707
		c-0.411,0.059-0.786-0.229-0.843-0.636c-0.054-0.416,0.233-0.789,0.643-0.847l4.907-0.659v-0.725l1.963-0.262v0.727L55.293,100.021
		z M44.206,93.912c0.425,0,0.771,0.347,0.771,0.772c0,0.423-0.345,0.769-0.771,0.769c-0.427,0-0.772-0.342-0.772-0.769
		C43.435,94.259,43.779,93.912,44.206,93.912z M44.206,103.057c-0.427,0-0.772-0.343-0.772-0.773c0-0.424,0.346-0.771,0.772-0.771
		c0.425,0,0.771,0.348,0.771,0.771C44.978,102.714,44.633,103.057,44.206,103.057z M44.234,99.252c-0.425,0-0.773-0.342-0.773-0.767
		c0-0.427,0.348-0.772,0.773-0.772c0.428,0,0.771,0.346,0.771,0.772C45.006,98.909,44.662,99.252,44.234,99.252z"/>
	<polygon points="55.293,91.097 53.803,91.097 53.803,92.62 55.293,92.427 	"/>
</g>
</svg>
