<?xml version="1.0" encoding="utf-8"?>
<!-- Generator: Adobe Illustrator 15.1.0, SVG Export Plug-In . SVG Version: 6.00 Build 0)  -->
<!DOCTYPE svg PUBLIC "-//W3C//DTD SVG 1.1//EN" "http://www.w3.org/Graphics/SVG/1.1/DTD/svg11.dtd">
<svg version="1.1" id="Layer_1" xmlns="http://www.w3.org/2000/svg" xmlns:xlink="http://www.w3.org/1999/xlink" x="0px" y="0px"
	 width="189px" height="90px" viewBox="0 0 189 90" enable-background="new 0 0 189 90" xml:space="preserve">
<g>
	<g>
		<path fill="#E0E0E0" d="M160.503,32.869L141.766,63.37c-0.405,0.663-0.006,1.646,0.893,2.2c0.9,0.553,1.96,0.464,2.367-0.199
			l18.727-30.507C162.971,34.627,161.006,33.452,160.503,32.869z"/>
		<path fill="#E0E0E0" d="M188.149,19.413c0.058-0.564,0.088-1.137,0.088-1.717c0-9.212-7.469-16.679-16.68-16.679
			c-3.398,0-6.555,1.022-9.191,2.767c-3.275,0.31-4.54,1.798-5.376,3.04l-1.976,3.26c-1.267,2.044-0.764,5.468-0.067,6.241
			c-0.036,0.453-0.068,0.908-0.068,1.371c0,9.211,7.467,16.679,16.679,16.679c3.127,0,6.043-0.876,8.544-2.374
			c2.916-0.138,5.123-1.596,6.169-3.255l2.032-3.461C189.469,22.836,188.506,19.983,188.149,19.413z M183.305,27.216
			c-4.197,0.622-11.137-1.314-15.95-5.947c3.041,1.736,9.662,5.069,14.725,4.875c3.951-0.152,5.643-2.396,5.856-2.935
			C188.372,23.91,187.502,26.593,183.305,27.216z"/>
	</g>
	<text transform="matrix(1 0 0 1 5.1846 69.2061)" fill="#E0E0E0" font-family="'Pacifico'" font-size="45.7908">Lollipop</text>
	<g>
		<g>
			<path fill="#9A8CC1" d="M159.485,31.852l-18.737,30.501c-0.405,0.663-0.006,1.646,0.893,2.2c0.9,0.553,1.96,0.464,2.367-0.199
				l18.727-30.507C161.953,33.609,159.988,32.435,159.485,31.852z"/>
			<path fill="#9A8CC1" d="M187.132,18.396c0.058-0.564,0.088-1.137,0.088-1.717C187.22,7.467,179.751,0,170.54,0
				c-3.398,0-6.555,1.022-9.191,2.767c-3.275,0.31-4.54,1.798-5.376,3.04l-1.976,3.26c-1.267,2.044-0.764,5.468-0.067,6.241
				c-0.036,0.453-0.068,0.908-0.068,1.371c0,9.211,7.467,16.679,16.679,16.679c3.127,0,6.043-0.876,8.544-2.374
				c2.916-0.138,5.123-1.596,6.169-3.255l2.032-3.461C188.451,21.818,187.488,18.965,187.132,18.396z M182.287,26.199
				c-4.197,0.622-11.137-1.314-15.95-5.947c3.041,1.736,9.662,5.069,14.725,4.875c3.951-0.151,5.643-2.396,5.856-2.935
				C187.354,22.893,186.484,25.576,182.287,26.199z"/>
		</g>
		<text transform="matrix(1 0 0 1 4.167 68.1885)" fill="#9A8CC1" font-family="'Pacifico'" font-size="45.7908">Lollipop</text>
	</g>
</g>
</svg>
